<svg width="59" height="72" viewBox="0 0 59 72" fill="none" xmlns="http://www.w3.org/2000/svg">
<path d="M34.8392 70.5931L2.44296 53.5107C1.91039 53.2305 1.43838 52.8479 1.05401 52.3848C0.669641 51.9217 0.38048 51.3873 0.203103 50.8122C0.0257258 50.2372 -0.0363741 49.6327 0.0203675 49.0336C0.077109 48.4345 0.251571 47.8524 0.533754 47.3209L24.2079 2.44441C24.7781 1.37026 25.7503 0.565459 26.912 0.205837C28.0737 -0.153784 29.3305 -0.0389847 30.4079 0.525151L50.9972 11.3775L58.2421 36.1671L41.0391 68.6739C40.4689 69.748 39.4968 70.5528 38.3351 70.9124C37.1734 71.2721 35.9166 71.1573 34.8392 70.5931Z" fill="#029491"/>
<g opacity="0.3">
<path d="M50.9975 11.3772L44.3253 23.9981C43.7997 24.9994 43.6918 26.1681 44.025 27.2488C44.3583 28.3295 45.1056 29.2344 46.1039 29.7659L58.2424 36.1668L50.9975 11.3772Z" fill="white"/>
</g>
<g opacity="0.2">
<path d="M43.8722 25.1941C43.3745 26.154 43.2197 27.2553 43.4335 28.3152C43.6473 29.3752 44.2169 30.3303 45.0479 31.0222L45.3996 31.3136C46.8365 32.439 56.2821 39.8046 56.4529 39.5634C56.6238 39.3222 58.2416 36.167 58.2416 36.167L46.103 29.7661C46.103 29.7661 43.0885 28.0579 43.8722 25.1941Z" fill="black"/>
</g>
<path d="M41.8428 22.049C41.7524 22.2098 38.3359 20.5719 34.1959 18.3813C30.056 16.1908 26.7701 14.3016 26.8806 14.1308C26.9912 13.96 30.3976 15.6079 34.5376 17.7985C38.6775 19.9891 41.9533 21.8882 41.8428 22.049Z" fill="#FAFAFA"/>
<path d="M47.7519 34.3382C47.6715 34.499 42.0745 31.7155 35.2617 28.1182C28.4488 24.5208 23.0025 21.436 23.0829 21.2752C23.1633 21.1144 28.7603 23.8978 35.5732 27.4952C42.386 31.0925 47.8423 34.1372 47.7519 34.3382Z" fill="#FAFAFA"/>
<path d="M46.8272 41.4326C46.7469 41.5934 40.6575 38.5487 33.2317 34.6197C25.8058 30.6908 19.8471 27.3949 19.9375 27.2341C20.028 27.0733 26.1173 30.118 33.5432 34.0369C40.969 37.9558 46.9177 41.2718 46.8272 41.4326Z" fill="#FAFAFA"/>
<path d="M43.8634 47.0495C43.7729 47.2103 37.6836 44.1656 30.2578 40.2467C22.8319 36.3278 16.8832 33.0118 16.9737 32.8511C17.0641 32.6903 23.1434 35.735 30.5693 39.6539C37.9951 43.5728 43.9639 46.8888 43.8634 47.0495Z" fill="#FAFAFA"/>
<path d="M40.8886 52.6765C40.8082 52.8373 34.7188 49.7926 27.293 45.8636C19.8672 41.9347 13.9185 38.6388 13.9989 38.478C14.0792 38.3172 20.1787 41.3719 27.6045 45.2808C35.0303 49.1897 40.9489 52.5157 40.8886 52.6765Z" fill="#FAFAFA"/>
<path d="M37.9347 58.2934C37.8442 58.4542 31.7549 55.4095 24.3391 51.4906C16.9233 47.5717 10.9545 44.2557 11.045 44.095C11.1354 43.9342 17.2147 46.9789 24.6405 50.8978C32.0664 54.8167 38.0151 58.1327 37.9347 58.2934Z" fill="#FAFAFA"/>
</svg>
